<svg width="30" height="30" viewBox="0 0 30 30" xmlns="http://www.w3.org/2000/svg">
  <g fill="none" fill-rule="evenodd">
    <path d="M0 0h30v30H0z"/>
    <g fill="#19216C">
      <path d="m24.21 14.03-.05-.01-.95 2.47h1.55l-.55-2.46M27 18.89l-1.6-.01c-.05 0-.12-.09-.14-.14l-.2-.86h-2.2c-.15 0-.21.05-.25.17a9.1 9.1 0 0 1-.28.71c-.02.06-.1.12-.16.12h-1.8c.02-.06.03-.12.06-.17l2.68-6.04c.16-.37.45-.55.87-.55h1.52l1.5 6.77M4 12.3l.05-.18h3.08c.51 0 .84.27.93.74l.74 3.7.05.15.12-.27 1.74-4.15c.05-.13.12-.18.27-.17h1.74l-.54 1.22c-.8 1.79-1.6 3.58-2.38 5.37-.07.15-.15.18-.3.18H7.98c-.18 0-.25-.05-.29-.2l-1.42-5.21c-.08-.31-.25-.54-.57-.65-.5-.17-1-.32-1.51-.48L4 12.3M20.77 12.3l-.31 1.36c-.47-.08-.91-.2-1.37-.24-.28-.02-.6.02-.87.12-.48.17-.53.6-.12.88.24.16.5.28.76.42.22.12.46.24.67.38 1.07.7 1.2 2.01.3 2.9a3.2 3.2 0 0 1-1.9.83c-.88.12-1.75.02-2.6-.23-.16-.05-.2-.12-.16-.27l.3-1.26c.32.11.64.23.97.3.46.12.94.16 1.41.03.13-.03.26-.08.37-.15.33-.2.37-.58.08-.84-.16-.13-.35-.23-.53-.33-.3-.17-.62-.31-.91-.49-1.5-.9-1.03-2.4-.11-3.06a3.64 3.64 0 0 1 1.82-.63 5.2 5.2 0 0 1 2.2.28M15.38 12.12l-.43 1.92-1.06 4.67c-.03.13-.07.18-.22.18H12l.32-1.43c.39-1.7.78-3.4 1.15-5.1.05-.2.13-.25.34-.25.51.02 1.02 0 1.57 0"/>
    </g>
  </g>
</svg>